<svg xmlns="http://www.w3.org/2000/svg" xmlns:xlink="http://www.w3.org/1999/xlink" width="2000" zoomAndPan="magnify" viewBox="0 0 1500 225" height="300" preserveAspectRatio="xMidYMid meet" version="1.0"><defs><g/><clipPath id="f8a1870ae8"><rect x="0" width="985" y="0" height="189"/></clipPath><clipPath id="de025ce2a9"><path d="M 75 25 L 122 25 L 122 78.679688 L 75 78.679688 Z M 75 25 " clip-rule="nonzero"/></clipPath><clipPath id="755f47467a"><path d="M 126 25 L 173 25 L 173 78.679688 L 126 78.679688 Z M 126 25 " clip-rule="nonzero"/></clipPath><clipPath id="047c78c00e"><rect x="0" width="175" y="0" height="79"/></clipPath></defs><path fill="#000000" d="M 101.835938 198.523438 C 101.847656 198.410156 103.65625 197.429688 105.859375 196.339844 C 119.65625 189.539062 132.578125 179.910156 146.21875 166.269531 C 159.617188 152.859375 170.6875 138.402344 177.921875 124.875 C 178.96875 122.917969 179.136719 122.742188 179.4375 123.265625 C 180.015625 124.253906 179.871094 134.300781 179.234375 137.527344 C 176.773438 150.027344 171.648438 160.265625 160.535156 174.882812 C 158.515625 177.542969 156.929688 179.820312 157.007812 179.949219 C 157.160156 180.199219 186.332031 180.023438 186.585938 179.765625 C 186.867188 179.488281 185.570312 178.726562 183.285156 177.835938 C 180.265625 176.660156 175.648438 175.679688 171.8125 175.394531 C 170.097656 175.269531 168.613281 175.082031 168.507812 174.980469 C 168.296875 174.769531 168.660156 174.15625 171.195312 170.433594 C 172.152344 169.027344 174.339844 165.152344 176.058594 161.820312 C 178.878906 156.347656 179.253906 155.765625 179.941406 155.789062 C 180.359375 155.800781 182.550781 156.046875 184.804688 156.332031 C 196.3125 157.789062 223.746094 161.023438 231.570312 161.839844 C 239.175781 162.636719 240.519531 162.460938 241.304688 160.5625 C 241.5625 159.933594 241.632812 147.652344 241.570312 112.800781 L 241.492188 65.890625 L 240.773438 65.308594 C 240.378906 64.988281 239.59375 64.730469 239.019531 64.730469 C 238.453125 64.730469 234.398438 65.5625 230.011719 66.578125 C 225.628906 67.59375 219.441406 69.019531 216.265625 69.746094 C 213.085938 70.472656 208.09375 71.632812 205.167969 72.320312 C 202.246094 73.007812 197.523438 74.101562 194.683594 74.75 C 189.503906 75.929688 179.296875 78.3125 169.910156 80.53125 C 167.152344 81.183594 162.5 82.273438 159.578125 82.953125 C 156.652344 83.632812 151.933594 84.734375 149.089844 85.398438 C 140.363281 87.4375 132.164062 89.28125 130.09375 89.675781 C 127.824219 90.101562 126 90.921875 125.722656 91.640625 C 125.382812 92.519531 125.503906 148.300781 125.84375 148.9375 C 126.359375 149.902344 127.089844 150.101562 131.957031 150.609375 C 134.523438 150.875 136.738281 151.199219 136.871094 151.328125 C 137.148438 151.601562 131.527344 155.105469 128.574219 156.5 C 125.621094 157.898438 122.933594 157.632812 120.710938 155.730469 C 118.246094 153.617188 118.390625 155.789062 118.390625 120.65625 C 118.390625 95.210938 118.464844 89.289062 118.804688 88.332031 C 119.289062 86.949219 120.726562 85.238281 121.910156 84.625 C 122.796875 84.167969 127.246094 83.058594 138.453125 80.503906 C 142.128906 79.664062 148.011719 78.292969 151.523438 77.453125 C 155.03125 76.613281 163.992188 74.511719 171.429688 72.777344 C 178.867188 71.042969 192.136719 67.902344 200.914062 65.792969 C 209.691406 63.6875 218.855469 61.496094 221.277344 60.933594 C 223.703125 60.363281 228.625 59.199219 232.222656 58.34375 C 241.117188 56.222656 243.007812 55.90625 244.777344 56.234375 C 246.960938 56.644531 248.734375 58.019531 249.75 60.09375 L 250.609375 61.839844 L 250.609375 166.097656 L 249.773438 167.519531 C 247.75 170.964844 245.636719 171.683594 239.648438 170.96875 C 235.691406 170.492188 221.566406 168.761719 198.796875 165.953125 C 191.402344 165.046875 186.382812 164.550781 186.214844 164.71875 C 185.804688 165.128906 185.976562 170.589844 186.414062 170.996094 C 186.617188 171.1875 187.945312 171.640625 189.363281 172.003906 C 196.15625 173.75 200.964844 175.675781 207.449219 179.242188 L 208.96875 180.078125 L 220.824219 180.039062 C 228.609375 180.015625 233.351562 179.875 234.640625 179.636719 C 244.457031 177.804688 252.980469 171.988281 258.515625 163.339844 C 262.214844 157.554688 264.15625 150.613281 264.167969 143.132812 C 264.175781 134.792969 262.460938 128.570312 258.089844 121.117188 L 256.84375 118.992188 L 256.84375 104.828125 C 256.84375 97.039062 256.925781 90.578125 257.035156 90.476562 C 257.441406 90.066406 261.964844 92.949219 266.28125 96.367188 C 275.546875 103.707031 282.429688 114.941406 285.378906 127.554688 C 288.542969 141.089844 286.851562 155.558594 280.667969 167.835938 C 275.644531 177.808594 267.035156 186.710938 257.144531 192.15625 C 252.148438 194.902344 244.234375 197.453125 238.59375 198.128906 C 235.679688 198.476562 101.816406 198.863281 101.835938 198.523438 Z M 71.429688 197.546875 C 63.523438 196.59375 56.59375 193.9375 49.320312 189.074219 C 39 182.175781 31.628906 171.804688 28.34375 159.5625 C 26.765625 153.6875 26.597656 152.292969 26.597656 145.277344 C 26.597656 139.609375 26.691406 138.28125 27.316406 135.246094 C 32.148438 111.65625 49.921875 94.351562 73.515625 90.253906 C 76.476562 89.742188 77.1875 89.414062 77.199219 88.550781 C 77.203125 88.359375 77.601562 86.925781 78.082031 85.359375 C 80.933594 76.105469 84.75 68.453125 90.125 61.234375 C 97.082031 51.882812 104.753906 45.214844 115.199219 39.433594 C 121.839844 35.757812 131.535156 32.652344 140.273438 31.402344 C 145.21875 30.695312 155.320312 30.699219 160.304688 31.414062 C 167.34375 32.425781 174.90625 34.730469 181.417969 37.855469 C 189.632812 41.796875 194.839844 45.496094 201.21875 51.925781 C 205.378906 56.121094 206.730469 57.796875 206.300781 58.226562 C 206.128906 58.398438 204.003906 58.929688 187.996094 62.769531 C 184.820312 63.535156 182.003906 64.222656 181.730469 64.296875 C 181.457031 64.375 180.003906 63.617188 178.453125 62.589844 C 170.824219 57.53125 164.078125 55.003906 155.332031 53.945312 C 150.578125 53.367188 148.808594 53.367188 144.066406 53.945312 C 132.128906 55.398438 122.511719 59.992188 113.878906 68.355469 C 107.5625 74.472656 102.929688 81.925781 100.101562 90.523438 C 98.292969 96.015625 97.589844 100.359375 97.359375 107.511719 C 97.257812 110.730469 97.082031 113.363281 96.972656 113.363281 C 96.863281 113.363281 95.679688 112.964844 94.339844 112.472656 C 90.300781 110.996094 87.566406 110.546875 82.523438 110.527344 C 77.382812 110.5 74.640625 110.976562 71.011719 112.515625 C 63.984375 115.5 58.480469 121.6875 55.957031 129.445312 C 53.503906 136.980469 54.035156 146.570312 57.289062 153.417969 C 61.464844 162.21875 69.34375 168.21875 80.019531 170.738281 C 83.132812 171.472656 83.988281 171.542969 89.667969 171.542969 C 97.75 171.546875 102.175781 170.859375 110.488281 168.324219 C 127.695312 163.074219 148.203125 149.855469 163.535156 134.132812 C 165.625 131.988281 167.988281 129.511719 168.789062 128.636719 C 169.585938 127.757812 170.308594 127.039062 170.390625 127.039062 C 170.925781 127.039062 164.035156 137.453125 159.429688 143.605469 C 153.191406 151.9375 149.136719 156.570312 141.441406 164.160156 C 135.5625 169.953125 130.175781 174.695312 125.382812 178.289062 C 111.628906 188.59375 98.609375 194.808594 85.867188 197.144531 C 82.890625 197.691406 74.53125 197.925781 71.429688 197.546875 Z M 196.453125 136.792969 C 194.949219 136.101562 194.457031 135.265625 193.410156 131.628906 C 192.199219 127.445312 190.835938 125.140625 187.707031 121.992188 C 185.402344 119.675781 184.539062 119.027344 182.371094 118.007812 C 178.65625 116.257812 177.171875 115.976562 172.667969 116.179688 C 168.296875 116.375 167.375 116.140625 166.234375 114.535156 C 164.832031 112.570312 165.371094 110.027344 167.523438 108.417969 C 169.179688 107.183594 175.621094 107.023438 180.386719 108.101562 C 188.550781 109.9375 196.382812 116.417969 200.105469 124.40625 C 201.265625 126.898438 202.433594 131.101562 202.433594 132.773438 C 202.429688 136.132812 199.414062 138.160156 196.453125 136.792969 Z M 213.164062 133.128906 C 211.746094 132.265625 211.363281 131.511719 210.367188 127.5625 C 208.5 120.171875 206 115.746094 200.609375 110.292969 C 194.199219 103.8125 188.273438 100.550781 180.402344 99.183594 C 177.742188 98.71875 172.539062 98.753906 167.894531 99.261719 C 165.101562 99.566406 163.226562 97.894531 163.222656 95.09375 C 163.222656 91.941406 165.132812 90.78125 171.277344 90.199219 C 176.867188 89.675781 182.980469 90.367188 188.453125 92.140625 C 199.578125 95.757812 210.46875 105.429688 215.503906 116.175781 C 217.179688 119.746094 218.710938 124.058594 219.265625 126.769531 C 219.96875 130.171875 219.320312 132.234375 217.226562 133.226562 C 215.828125 133.890625 214.355469 133.855469 213.164062 133.128906 Z M 213.164062 133.128906 " fill-opacity="1" fill-rule="nonzero"/><g transform="matrix(1, 0, 0, 1, 317, 10)"><g clip-path="url(#f8a1870ae8)"><g fill="#000000" fill-opacity="1"><g transform="translate(0.724003, 163.389764)"><g><path d="M 48.890625 -125.34375 L 48.890625 0 L 8.265625 0 L 8.265625 -125.34375 Z M 48.890625 -125.34375 "/></g></g></g><g fill="#000000" fill-opacity="1"><g transform="translate(57.629122, 163.389764)"><g><path d="M 74.453125 -125.34375 C 88.160156 -125.34375 98.734375 -121.789062 106.171875 -114.6875 C 113.609375 -107.582031 117.328125 -97.515625 117.328125 -84.484375 C 117.328125 -72.285156 113.898438 -62.757812 107.046875 -55.90625 C 100.191406 -49.050781 90.414062 -45.207031 77.71875 -44.375 L 48.890625 -44.375 L 48.890625 0 L 8.265625 0 L 8.265625 -125.34375 Z M 68.9375 -75.203125 C 76.957031 -75.203125 80.96875 -78.296875 80.96875 -84.484375 C 80.96875 -90.835938 76.957031 -94.015625 68.9375 -94.015625 L 48.890625 -94.015625 L 48.890625 -75.203125 Z M 68.9375 -75.203125 "/></g></g></g><g fill="#000000" fill-opacity="1"><g transform="translate(179.461236, 163.389764)"><g><path d="M 116.328125 -90.25 L 82.234375 -90.25 L 82.234375 0 L 41.609375 0 L 41.609375 -90.25 L 7.265625 -90.25 L 7.265625 -125.34375 L 116.328125 -125.34375 Z M 116.328125 -90.25 "/></g></g></g><g fill="#000000" fill-opacity="1"><g transform="translate(303.048153, 163.389764)"><g><path d="M 44.375 -125.34375 L 2.25 -125.34375 L 50.390625 0 L 90.5 0 L 138.890625 -125.34375 L 97.015625 -125.34375 L 70.4375 -54.65625 Z M 44.375 -125.34375 "/></g></g></g><g fill="#000000" fill-opacity="1"><g transform="translate(434.405853, 163.389764)"><g><path d="M 78.96875 -52.390625 C 77.125 -39.691406 71.941406 -33.34375 63.421875 -33.34375 C 58.242188 -33.34375 54.191406 -35.890625 51.265625 -40.984375 C 48.335938 -46.085938 46.875 -53.316406 46.875 -62.671875 C 46.875 -72.203125 48.335938 -79.515625 51.265625 -84.609375 C 54.191406 -89.703125 58.242188 -92.25 63.421875 -92.25 C 67.265625 -92.25 70.566406 -90.578125 73.328125 -87.234375 C 76.085938 -83.898438 77.96875 -79.140625 78.96875 -72.953125 L 118.328125 -79.21875 C 115.148438 -94.59375 108.796875 -106.457031 99.265625 -114.8125 C 89.742188 -123.164062 77.710938 -127.34375 63.171875 -127.34375 C 45.117188 -127.34375 31.203125 -121.742188 21.421875 -110.546875 C 11.648438 -99.359375 6.765625 -83.398438 6.765625 -62.671875 C 6.765625 -42.117188 11.648438 -26.203125 21.421875 -14.921875 C 31.203125 -3.640625 45.117188 2 63.171875 2 C 77.710938 2 89.742188 -2.21875 99.265625 -10.65625 C 108.796875 -19.09375 115.148438 -30.914062 118.328125 -46.125 Z M 78.96875 -52.390625 "/></g></g></g><g fill="#000000" fill-opacity="1"><g transform="translate(559.24618, 163.389764)"><g><path d="M 49.140625 -125.34375 L 49.140625 0 L 8.265625 0 L 8.265625 -125.34375 Z M 49.140625 -125.34375 "/></g></g></g><g fill="#000000" fill-opacity="1"><g transform="translate(616.401971, 163.389764)"><g><path d="M 60.421875 2 C 43.035156 2 29.617188 -2.550781 20.171875 -11.65625 C 10.734375 -20.757812 6.015625 -33.585938 6.015625 -50.140625 C 6.015625 -66.847656 10.734375 -79.710938 20.171875 -88.734375 C 29.617188 -97.765625 43.035156 -102.28125 60.421875 -102.28125 C 77.796875 -102.28125 91.242188 -97.765625 100.765625 -88.734375 C 110.296875 -79.710938 115.0625 -66.847656 115.0625 -50.140625 C 115.0625 -33.585938 110.296875 -20.757812 100.765625 -11.65625 C 91.242188 -2.550781 77.796875 2 60.421875 2 Z M 60.421875 -30.828125 C 65.097656 -30.828125 68.6875 -32.5 71.1875 -35.84375 C 73.695312 -39.1875 74.953125 -43.953125 74.953125 -50.140625 C 74.953125 -63.171875 70.109375 -69.6875 60.421875 -69.6875 C 50.890625 -69.6875 46.125 -63.171875 46.125 -50.140625 C 46.125 -43.953125 47.332031 -39.1875 49.75 -35.84375 C 52.175781 -32.5 55.734375 -30.828125 60.421875 -30.828125 Z M 60.421875 -30.828125 "/></g></g></g><g fill="#000000" fill-opacity="1"><g transform="translate(737.231397, 163.389764)"><g><path d="M 115.8125 -100.28125 L 115.8125 0 L 74.953125 0 L 74.953125 -16.046875 C 69.109375 -4.347656 59.332031 1.664062 45.625 2 C 33.257812 2 23.691406 -1.96875 16.921875 -9.90625 C 10.148438 -17.84375 6.765625 -29.082031 6.765625 -43.625 L 6.765625 -100.28125 L 47.375 -100.28125 L 47.375 -57.65625 C 47.375 -49.46875 48.503906 -43.160156 50.765625 -38.734375 C 53.023438 -34.304688 56.242188 -32.09375 60.421875 -32.09375 C 67.609375 -32.09375 72.453125 -38.273438 74.953125 -50.640625 L 74.953125 -100.28125 Z M 115.8125 -100.28125 "/></g></g></g><g fill="#000000" fill-opacity="1"><g transform="translate(861.069036, 163.389764)"><g><path d="M 115.0625 -125.34375 L 115.0625 0 L 74.203125 0 L 74.203125 -14.03125 C 68.191406 -3.34375 59.671875 2 48.640625 2 C 34.929688 2 24.398438 -2.550781 17.046875 -11.65625 C 9.691406 -20.757812 6.015625 -33.585938 6.015625 -50.140625 C 6.015625 -66.847656 9.691406 -79.710938 17.046875 -88.734375 C 24.398438 -97.765625 34.929688 -102.28125 48.640625 -102.28125 C 59.835938 -102.28125 68.359375 -97.015625 74.203125 -86.484375 L 74.203125 -125.34375 Z M 60.421875 -30.828125 C 64.929688 -30.828125 68.351562 -32.5 70.6875 -35.84375 C 73.03125 -39.1875 74.203125 -43.953125 74.203125 -50.140625 C 74.203125 -63.171875 69.609375 -69.6875 60.421875 -69.6875 C 50.890625 -69.6875 46.125 -63.171875 46.125 -50.140625 C 46.125 -43.953125 47.332031 -39.1875 49.75 -35.84375 C 52.175781 -32.5 55.734375 -30.828125 60.421875 -30.828125 Z M 60.421875 -30.828125 "/></g></g></g></g></g><g transform="matrix(1, 0, 0, 1, 1305, 109)"><g clip-path="url(#047c78c00e)"><g fill="#000000" fill-opacity="1"><g transform="translate(0.959685, 67.88738)"><g><path d="M 11.15625 0.828125 C 8.445312 0.828125 6.378906 0.203125 4.953125 -1.046875 C 3.523438 -2.296875 2.8125 -4.03125 2.8125 -6.25 C 2.8125 -8.476562 3.523438 -10.21875 4.953125 -11.46875 C 6.378906 -12.71875 8.445312 -13.34375 11.15625 -13.34375 C 13.800781 -13.34375 15.851562 -12.71875 17.3125 -11.46875 C 18.769531 -10.21875 19.5 -8.476562 19.5 -6.25 C 19.5 -4.03125 18.769531 -2.296875 17.3125 -1.046875 C 15.851562 0.203125 13.800781 0.828125 11.15625 0.828125 Z M 11.15625 0.828125 "/></g></g></g><g fill="#000000" fill-opacity="1"><g transform="translate(21.085772, 67.88738)"><g><path d="M 47.859375 -41.71875 L 47.859375 0 L 30.875 0 L 30.875 -5.84375 C 28.363281 -1.394531 24.816406 0.828125 20.234375 0.828125 C 14.535156 0.828125 10.15625 -1.0625 7.09375 -4.84375 C 4.03125 -8.632812 2.5 -13.972656 2.5 -20.859375 C 2.5 -27.804688 4.03125 -33.15625 7.09375 -36.90625 C 10.15625 -40.664062 14.535156 -42.546875 20.234375 -42.546875 C 24.890625 -42.546875 28.4375 -40.359375 30.875 -35.984375 L 30.875 -41.71875 Z M 25.140625 -12.828125 C 27.015625 -12.828125 28.4375 -13.519531 29.40625 -14.90625 C 30.382812 -16.300781 30.875 -18.285156 30.875 -20.859375 C 30.875 -26.273438 28.960938 -28.984375 25.140625 -28.984375 C 21.171875 -28.984375 19.1875 -26.273438 19.1875 -20.859375 C 19.1875 -18.285156 19.691406 -16.300781 20.703125 -14.90625 C 21.710938 -13.519531 23.191406 -12.828125 25.140625 -12.828125 Z M 25.140625 -12.828125 "/></g></g></g><g clip-path="url(#de025ce2a9)"><g fill="#000000" fill-opacity="1"><g transform="translate(72.287682, 67.88738)"><g><path d="M 30.96875 -42.546875 C 36.675781 -42.546875 41.078125 -40.664062 44.171875 -36.90625 C 47.265625 -33.15625 48.8125 -27.804688 48.8125 -20.859375 C 48.8125 -13.972656 47.265625 -8.632812 44.171875 -4.84375 C 41.078125 -1.0625 36.675781 0.828125 30.96875 0.828125 C 28.675781 0.828125 26.644531 0.253906 24.875 -0.890625 C 23.101562 -2.035156 21.585938 -3.6875 20.328125 -5.84375 L 20.328125 10.421875 L 3.4375 10.421875 L 3.4375 -41.71875 L 20.328125 -41.71875 L 20.328125 -35.984375 C 22.898438 -40.359375 26.445312 -42.546875 30.96875 -42.546875 Z M 26.078125 -12.828125 C 28.015625 -12.828125 29.503906 -13.519531 30.546875 -14.90625 C 31.597656 -16.300781 32.125 -18.285156 32.125 -20.859375 C 32.125 -26.273438 30.109375 -28.984375 26.078125 -28.984375 C 22.242188 -28.984375 20.328125 -26.273438 20.328125 -20.859375 C 20.328125 -18.285156 20.832031 -16.300781 21.84375 -14.90625 C 22.851562 -13.519531 24.265625 -12.828125 26.078125 -12.828125 Z M 26.078125 -12.828125 "/></g></g></g></g><g clip-path="url(#755f47467a)"><g fill="#000000" fill-opacity="1"><g transform="translate(123.489591, 67.88738)"><g><path d="M 30.96875 -42.546875 C 36.675781 -42.546875 41.078125 -40.664062 44.171875 -36.90625 C 47.265625 -33.15625 48.8125 -27.804688 48.8125 -20.859375 C 48.8125 -13.972656 47.265625 -8.632812 44.171875 -4.84375 C 41.078125 -1.0625 36.675781 0.828125 30.96875 0.828125 C 28.675781 0.828125 26.644531 0.253906 24.875 -0.890625 C 23.101562 -2.035156 21.585938 -3.6875 20.328125 -5.84375 L 20.328125 10.421875 L 3.4375 10.421875 L 3.4375 -41.71875 L 20.328125 -41.71875 L 20.328125 -35.984375 C 22.898438 -40.359375 26.445312 -42.546875 30.96875 -42.546875 Z M 26.078125 -12.828125 C 28.015625 -12.828125 29.503906 -13.519531 30.546875 -14.90625 C 31.597656 -16.300781 32.125 -18.285156 32.125 -20.859375 C 32.125 -26.273438 30.109375 -28.984375 26.078125 -28.984375 C 22.242188 -28.984375 20.328125 -26.273438 20.328125 -20.859375 C 20.328125 -18.285156 20.832031 -16.300781 21.84375 -14.90625 C 22.851562 -13.519531 24.265625 -12.828125 26.078125 -12.828125 Z M 26.078125 -12.828125 "/></g></g></g></g></g></g></svg>