<svg xmlns="http://www.w3.org/2000/svg" xmlns:xlink="http://www.w3.org/1999/xlink" width="2000" zoomAndPan="magnify" viewBox="0 0 1500 225" height="300" preserveAspectRatio="xMidYMid meet" version="1.0"><defs><g/><clipPath id="e9def60fe0"><rect x="0" width="985" y="0" height="189"/></clipPath><clipPath id="30ee9e3350"><path d="M 75 25 L 122 25 L 122 78.679688 L 75 78.679688 Z M 75 25 " clip-rule="nonzero"/></clipPath><clipPath id="f408536063"><path d="M 126 25 L 173 25 L 173 78.679688 L 126 78.679688 Z M 126 25 " clip-rule="nonzero"/></clipPath><clipPath id="2fd652b0ad"><rect x="0" width="175" y="0" height="79"/></clipPath></defs><path fill="#ffffff" d="M 101.859375 198.585938 C 101.871094 198.476562 103.679688 197.492188 105.882812 196.40625 C 119.683594 189.601562 132.609375 179.96875 146.25 166.324219 C 159.652344 152.914062 170.726562 138.453125 177.964844 124.921875 C 179.007812 122.964844 179.175781 122.789062 179.476562 123.3125 C 180.054688 124.300781 179.914062 134.351562 179.277344 137.578125 C 176.8125 150.082031 171.6875 160.320312 160.574219 174.941406 C 158.550781 177.601562 156.964844 179.882812 157.042969 180.007812 C 157.195312 180.261719 186.375 180.082031 186.628906 179.828125 C 186.910156 179.546875 185.613281 178.785156 183.328125 177.894531 C 180.308594 176.71875 175.6875 175.738281 171.847656 175.453125 C 170.136719 175.328125 168.652344 175.140625 168.542969 175.039062 C 168.335938 174.828125 168.695312 174.214844 171.230469 170.488281 C 172.191406 169.085938 174.378906 165.210938 176.097656 161.875 C 178.921875 156.402344 179.296875 155.820312 179.980469 155.84375 C 180.402344 155.855469 182.589844 156.101562 184.847656 156.386719 C 196.355469 157.84375 223.796875 161.078125 231.625 161.894531 C 239.230469 162.695312 240.574219 162.519531 241.359375 160.617188 C 241.617188 159.988281 241.6875 147.703125 241.625 112.847656 L 241.546875 65.925781 L 240.828125 65.34375 C 240.433594 65.023438 239.648438 64.761719 239.074219 64.761719 C 238.507812 64.761719 234.449219 65.59375 230.0625 66.609375 C 225.679688 67.625 219.488281 69.054688 216.3125 69.78125 C 213.136719 70.507812 208.140625 71.667969 205.214844 72.355469 C 202.292969 73.042969 197.570312 74.140625 194.726562 74.785156 C 189.546875 75.964844 179.335938 78.347656 169.949219 80.570312 C 167.1875 81.222656 162.539062 82.3125 159.613281 82.992188 C 156.6875 83.671875 151.964844 84.773438 149.125 85.4375 C 140.394531 87.476562 132.195312 89.320312 130.121094 89.714844 C 127.855469 90.140625 126.027344 90.964844 125.75 91.679688 C 125.414062 92.558594 125.53125 148.355469 125.871094 148.988281 C 126.390625 149.957031 127.117188 150.15625 131.984375 150.660156 C 134.554688 150.929688 136.769531 151.25 136.902344 151.382812 C 137.179688 151.65625 131.558594 155.15625 128.601562 156.554688 C 125.648438 157.953125 122.960938 157.6875 120.738281 155.785156 C 118.273438 153.671875 118.417969 155.84375 118.417969 120.703125 C 118.417969 95.25 118.492188 89.328125 118.832031 88.375 C 119.316406 86.988281 120.753906 85.273438 121.9375 84.664062 C 122.824219 84.203125 127.273438 83.09375 138.484375 80.542969 C 142.160156 79.703125 148.042969 78.332031 151.554688 77.488281 C 155.066406 76.648438 164.03125 74.546875 171.46875 72.8125 C 178.910156 71.078125 192.179688 67.9375 200.960938 65.828125 C 209.738281 63.71875 218.90625 61.53125 221.328125 60.964844 C 223.753906 60.398438 228.675781 59.230469 232.273438 58.375 C 241.171875 56.257812 243.0625 55.941406 244.832031 56.269531 C 247.015625 56.675781 248.792969 58.054688 249.808594 60.125 L 250.667969 61.875 L 250.667969 166.15625 L 249.832031 167.578125 C 247.808594 171.023438 245.695312 171.742188 239.703125 171.023438 C 235.746094 170.550781 221.617188 168.816406 198.839844 166.011719 C 191.445312 165.101562 186.425781 164.605469 186.257812 164.773438 C 185.847656 165.183594 186.019531 170.648438 186.457031 171.054688 C 186.660156 171.242188 187.988281 171.695312 189.40625 172.0625 C 196.203125 173.808594 201.007812 175.734375 207.496094 179.304688 L 209.015625 180.140625 L 220.875 180.101562 C 228.660156 180.074219 233.40625 179.9375 234.695312 179.695312 C 244.511719 177.867188 253.039062 172.046875 258.570312 163.398438 C 262.273438 157.613281 264.214844 150.667969 264.226562 143.183594 C 264.234375 134.84375 262.519531 128.621094 258.148438 121.164062 L 256.898438 119.039062 L 256.898438 104.871094 C 256.898438 97.082031 256.984375 90.621094 257.089844 90.515625 C 257.5 90.105469 262.027344 92.992188 266.339844 96.410156 C 275.609375 103.75 282.492188 114.988281 285.441406 127.605469 C 288.609375 141.140625 286.917969 155.613281 280.734375 167.894531 C 275.707031 177.867188 267.09375 186.773438 257.203125 192.21875 C 252.207031 194.96875 244.289062 197.519531 238.644531 198.191406 C 235.734375 198.542969 101.839844 198.929688 101.859375 198.585938 Z M 71.445312 197.613281 C 63.539062 196.65625 56.605469 194 49.332031 189.136719 C 39.007812 182.238281 31.636719 171.863281 28.351562 159.617188 C 26.773438 153.742188 26.601562 152.347656 26.605469 145.328125 C 26.605469 139.660156 26.699219 138.332031 27.324219 135.296875 C 32.15625 111.699219 49.933594 94.394531 73.53125 90.292969 C 76.496094 89.78125 77.207031 89.453125 77.214844 88.589844 C 77.21875 88.402344 77.617188 86.964844 78.101562 85.398438 C 80.953125 76.140625 84.769531 68.488281 90.144531 61.265625 C 97.105469 51.914062 104.777344 45.246094 115.226562 39.460938 C 121.867188 35.785156 131.566406 32.679688 140.308594 31.429688 C 145.25 30.722656 155.355469 30.726562 160.339844 31.441406 C 167.378906 32.449219 174.945312 34.757812 181.460938 37.882812 C 189.675781 41.828125 194.882812 45.523438 201.265625 51.957031 C 205.425781 56.152344 206.777344 57.832031 206.347656 58.257812 C 206.171875 58.433594 204.046875 58.960938 188.039062 62.804688 C 184.863281 63.566406 182.042969 64.253906 181.773438 64.332031 C 181.5 64.410156 180.042969 63.648438 178.496094 62.625 C 170.863281 57.5625 164.113281 55.035156 155.367188 53.976562 C 150.613281 53.398438 148.84375 53.398438 144.097656 53.976562 C 132.160156 55.433594 122.539062 60.027344 113.90625 68.390625 C 107.589844 74.507812 102.953125 81.964844 100.125 90.566406 C 98.316406 96.054688 97.613281 100.402344 97.382812 107.554688 C 97.277344 110.773438 97.101562 113.40625 96.992188 113.40625 C 96.886719 113.40625 95.699219 113.007812 94.363281 112.519531 C 90.320312 111.042969 87.585938 110.589844 82.542969 110.570312 C 77.398438 110.546875 74.65625 111.019531 71.027344 112.5625 C 64 115.542969 58.496094 121.734375 55.96875 129.492188 C 53.515625 137.03125 54.046875 146.621094 57.300781 153.472656 C 61.480469 162.273438 69.359375 168.277344 80.039062 170.796875 C 83.152344 171.53125 84.007812 171.601562 89.6875 171.601562 C 97.769531 171.605469 102.199219 170.917969 110.511719 168.382812 C 127.722656 163.128906 148.234375 149.90625 163.570312 134.183594 C 165.664062 132.035156 168.027344 129.5625 168.828125 128.683594 C 169.625 127.804688 170.347656 127.085938 170.429688 127.085938 C 170.964844 127.085938 164.074219 137.503906 159.464844 143.65625 C 153.226562 151.988281 149.167969 156.625 141.472656 164.214844 C 135.589844 170.011719 130.203125 174.753906 125.410156 178.347656 C 111.65625 188.65625 98.632812 194.871094 85.886719 197.207031 C 82.910156 197.753906 74.550781 197.988281 71.445312 197.613281 Z M 196.496094 136.84375 C 194.996094 136.152344 194.503906 135.3125 193.453125 131.679688 C 192.242188 127.496094 190.878906 125.1875 187.75 122.039062 C 185.445312 119.722656 184.578125 119.074219 182.414062 118.054688 C 178.695312 116.304688 177.210938 116.023438 172.707031 116.226562 C 168.335938 116.417969 167.414062 116.183594 166.269531 114.578125 C 164.867188 112.617188 165.40625 110.070312 167.5625 108.460938 C 169.214844 107.230469 175.660156 107.066406 180.425781 108.144531 C 188.59375 109.984375 196.425781 116.460938 200.152344 124.453125 C 201.308594 126.945312 202.480469 131.148438 202.480469 132.820312 C 202.476562 136.183594 199.457031 138.210938 196.496094 136.84375 Z M 213.210938 133.179688 C 211.792969 132.3125 211.410156 131.558594 210.414062 127.609375 C 208.546875 120.214844 206.046875 115.789062 200.65625 110.339844 C 194.242188 103.855469 188.316406 100.59375 180.445312 99.222656 C 177.785156 98.761719 172.578125 98.796875 167.933594 99.304688 C 165.140625 99.609375 163.265625 97.933594 163.261719 95.132812 C 163.261719 91.980469 165.171875 90.820312 171.316406 90.238281 C 176.90625 89.714844 183.023438 90.40625 188.496094 92.183594 C 199.625 95.796875 210.515625 105.472656 215.554688 116.222656 C 217.226562 119.792969 218.761719 124.105469 219.316406 126.816406 C 220.019531 130.222656 219.367188 132.285156 217.277344 133.273438 C 215.875 133.941406 214.402344 133.90625 213.210938 133.179688 Z M 213.210938 133.179688 " fill-opacity="1" fill-rule="nonzero"/><g transform="matrix(1, 0, 0, 1, 317, 10)"><g clip-path="url(#e9def60fe0)"><g fill="#ffffff" fill-opacity="1"><g transform="translate(0.724003, 163.389764)"><g><path d="M 48.890625 -125.34375 L 48.890625 0 L 8.265625 0 L 8.265625 -125.34375 Z M 48.890625 -125.34375 "/></g></g></g><g fill="#ffffff" fill-opacity="1"><g transform="translate(57.629122, 163.389764)"><g><path d="M 74.453125 -125.34375 C 88.160156 -125.34375 98.734375 -121.789062 106.171875 -114.6875 C 113.609375 -107.582031 117.328125 -97.515625 117.328125 -84.484375 C 117.328125 -72.285156 113.898438 -62.757812 107.046875 -55.90625 C 100.191406 -49.050781 90.414062 -45.207031 77.71875 -44.375 L 48.890625 -44.375 L 48.890625 0 L 8.265625 0 L 8.265625 -125.34375 Z M 68.9375 -75.203125 C 76.957031 -75.203125 80.96875 -78.296875 80.96875 -84.484375 C 80.96875 -90.835938 76.957031 -94.015625 68.9375 -94.015625 L 48.890625 -94.015625 L 48.890625 -75.203125 Z M 68.9375 -75.203125 "/></g></g></g><g fill="#ffffff" fill-opacity="1"><g transform="translate(179.461236, 163.389764)"><g><path d="M 116.328125 -90.25 L 82.234375 -90.25 L 82.234375 0 L 41.609375 0 L 41.609375 -90.25 L 7.265625 -90.25 L 7.265625 -125.34375 L 116.328125 -125.34375 Z M 116.328125 -90.25 "/></g></g></g><g fill="#ffffff" fill-opacity="1"><g transform="translate(303.048153, 163.389764)"><g><path d="M 44.375 -125.34375 L 2.25 -125.34375 L 50.390625 0 L 90.5 0 L 138.890625 -125.34375 L 97.015625 -125.34375 L 70.4375 -54.65625 Z M 44.375 -125.34375 "/></g></g></g><g fill="#ffffff" fill-opacity="1"><g transform="translate(434.405853, 163.389764)"><g><path d="M 78.96875 -52.390625 C 77.125 -39.691406 71.941406 -33.34375 63.421875 -33.34375 C 58.242188 -33.34375 54.191406 -35.890625 51.265625 -40.984375 C 48.335938 -46.085938 46.875 -53.316406 46.875 -62.671875 C 46.875 -72.203125 48.335938 -79.515625 51.265625 -84.609375 C 54.191406 -89.703125 58.242188 -92.25 63.421875 -92.25 C 67.265625 -92.25 70.566406 -90.578125 73.328125 -87.234375 C 76.085938 -83.898438 77.96875 -79.140625 78.96875 -72.953125 L 118.328125 -79.21875 C 115.148438 -94.59375 108.796875 -106.457031 99.265625 -114.8125 C 89.742188 -123.164062 77.710938 -127.34375 63.171875 -127.34375 C 45.117188 -127.34375 31.203125 -121.742188 21.421875 -110.546875 C 11.648438 -99.359375 6.765625 -83.398438 6.765625 -62.671875 C 6.765625 -42.117188 11.648438 -26.203125 21.421875 -14.921875 C 31.203125 -3.640625 45.117188 2 63.171875 2 C 77.710938 2 89.742188 -2.21875 99.265625 -10.65625 C 108.796875 -19.09375 115.148438 -30.914062 118.328125 -46.125 Z M 78.96875 -52.390625 "/></g></g></g><g fill="#ffffff" fill-opacity="1"><g transform="translate(559.24618, 163.389764)"><g><path d="M 49.140625 -125.34375 L 49.140625 0 L 8.265625 0 L 8.265625 -125.34375 Z M 49.140625 -125.34375 "/></g></g></g><g fill="#ffffff" fill-opacity="1"><g transform="translate(616.401971, 163.389764)"><g><path d="M 60.421875 2 C 43.035156 2 29.617188 -2.550781 20.171875 -11.65625 C 10.734375 -20.757812 6.015625 -33.585938 6.015625 -50.140625 C 6.015625 -66.847656 10.734375 -79.710938 20.171875 -88.734375 C 29.617188 -97.765625 43.035156 -102.28125 60.421875 -102.28125 C 77.796875 -102.28125 91.242188 -97.765625 100.765625 -88.734375 C 110.296875 -79.710938 115.0625 -66.847656 115.0625 -50.140625 C 115.0625 -33.585938 110.296875 -20.757812 100.765625 -11.65625 C 91.242188 -2.550781 77.796875 2 60.421875 2 Z M 60.421875 -30.828125 C 65.097656 -30.828125 68.6875 -32.5 71.1875 -35.84375 C 73.695312 -39.1875 74.953125 -43.953125 74.953125 -50.140625 C 74.953125 -63.171875 70.109375 -69.6875 60.421875 -69.6875 C 50.890625 -69.6875 46.125 -63.171875 46.125 -50.140625 C 46.125 -43.953125 47.332031 -39.1875 49.75 -35.84375 C 52.175781 -32.5 55.734375 -30.828125 60.421875 -30.828125 Z M 60.421875 -30.828125 "/></g></g></g><g fill="#ffffff" fill-opacity="1"><g transform="translate(737.231397, 163.389764)"><g><path d="M 115.8125 -100.28125 L 115.8125 0 L 74.953125 0 L 74.953125 -16.046875 C 69.109375 -4.347656 59.332031 1.664062 45.625 2 C 33.257812 2 23.691406 -1.96875 16.921875 -9.90625 C 10.148438 -17.84375 6.765625 -29.082031 6.765625 -43.625 L 6.765625 -100.28125 L 47.375 -100.28125 L 47.375 -57.65625 C 47.375 -49.46875 48.503906 -43.160156 50.765625 -38.734375 C 53.023438 -34.304688 56.242188 -32.09375 60.421875 -32.09375 C 67.609375 -32.09375 72.453125 -38.273438 74.953125 -50.640625 L 74.953125 -100.28125 Z M 115.8125 -100.28125 "/></g></g></g><g fill="#ffffff" fill-opacity="1"><g transform="translate(861.069036, 163.389764)"><g><path d="M 115.0625 -125.34375 L 115.0625 0 L 74.203125 0 L 74.203125 -14.03125 C 68.191406 -3.34375 59.671875 2 48.640625 2 C 34.929688 2 24.398438 -2.550781 17.046875 -11.65625 C 9.691406 -20.757812 6.015625 -33.585938 6.015625 -50.140625 C 6.015625 -66.847656 9.691406 -79.710938 17.046875 -88.734375 C 24.398438 -97.765625 34.929688 -102.28125 48.640625 -102.28125 C 59.835938 -102.28125 68.359375 -97.015625 74.203125 -86.484375 L 74.203125 -125.34375 Z M 60.421875 -30.828125 C 64.929688 -30.828125 68.351562 -32.5 70.6875 -35.84375 C 73.03125 -39.1875 74.203125 -43.953125 74.203125 -50.140625 C 74.203125 -63.171875 69.609375 -69.6875 60.421875 -69.6875 C 50.890625 -69.6875 46.125 -63.171875 46.125 -50.140625 C 46.125 -43.953125 47.332031 -39.1875 49.75 -35.84375 C 52.175781 -32.5 55.734375 -30.828125 60.421875 -30.828125 Z M 60.421875 -30.828125 "/></g></g></g></g></g><g transform="matrix(1, 0, 0, 1, 1305, 109)"><g clip-path="url(#2fd652b0ad)"><g fill="#ffffff" fill-opacity="1"><g transform="translate(0.959685, 67.88738)"><g><path d="M 11.15625 0.828125 C 8.445312 0.828125 6.378906 0.203125 4.953125 -1.046875 C 3.523438 -2.296875 2.8125 -4.03125 2.8125 -6.25 C 2.8125 -8.476562 3.523438 -10.21875 4.953125 -11.46875 C 6.378906 -12.71875 8.445312 -13.34375 11.15625 -13.34375 C 13.800781 -13.34375 15.851562 -12.71875 17.3125 -11.46875 C 18.769531 -10.21875 19.5 -8.476562 19.5 -6.25 C 19.5 -4.03125 18.769531 -2.296875 17.3125 -1.046875 C 15.851562 0.203125 13.800781 0.828125 11.15625 0.828125 Z M 11.15625 0.828125 "/></g></g></g><g fill="#ffffff" fill-opacity="1"><g transform="translate(21.085772, 67.88738)"><g><path d="M 47.859375 -41.71875 L 47.859375 0 L 30.875 0 L 30.875 -5.84375 C 28.363281 -1.394531 24.816406 0.828125 20.234375 0.828125 C 14.535156 0.828125 10.15625 -1.0625 7.09375 -4.84375 C 4.03125 -8.632812 2.5 -13.972656 2.5 -20.859375 C 2.5 -27.804688 4.03125 -33.15625 7.09375 -36.90625 C 10.15625 -40.664062 14.535156 -42.546875 20.234375 -42.546875 C 24.890625 -42.546875 28.4375 -40.359375 30.875 -35.984375 L 30.875 -41.71875 Z M 25.140625 -12.828125 C 27.015625 -12.828125 28.4375 -13.519531 29.40625 -14.90625 C 30.382812 -16.300781 30.875 -18.285156 30.875 -20.859375 C 30.875 -26.273438 28.960938 -28.984375 25.140625 -28.984375 C 21.171875 -28.984375 19.1875 -26.273438 19.1875 -20.859375 C 19.1875 -18.285156 19.691406 -16.300781 20.703125 -14.90625 C 21.710938 -13.519531 23.191406 -12.828125 25.140625 -12.828125 Z M 25.140625 -12.828125 "/></g></g></g><g clip-path="url(#30ee9e3350)"><g fill="#ffffff" fill-opacity="1"><g transform="translate(72.287682, 67.88738)"><g><path d="M 30.96875 -42.546875 C 36.675781 -42.546875 41.078125 -40.664062 44.171875 -36.90625 C 47.265625 -33.15625 48.8125 -27.804688 48.8125 -20.859375 C 48.8125 -13.972656 47.265625 -8.632812 44.171875 -4.84375 C 41.078125 -1.0625 36.675781 0.828125 30.96875 0.828125 C 28.675781 0.828125 26.644531 0.253906 24.875 -0.890625 C 23.101562 -2.035156 21.585938 -3.6875 20.328125 -5.84375 L 20.328125 10.421875 L 3.4375 10.421875 L 3.4375 -41.71875 L 20.328125 -41.71875 L 20.328125 -35.984375 C 22.898438 -40.359375 26.445312 -42.546875 30.96875 -42.546875 Z M 26.078125 -12.828125 C 28.015625 -12.828125 29.503906 -13.519531 30.546875 -14.90625 C 31.597656 -16.300781 32.125 -18.285156 32.125 -20.859375 C 32.125 -26.273438 30.109375 -28.984375 26.078125 -28.984375 C 22.242188 -28.984375 20.328125 -26.273438 20.328125 -20.859375 C 20.328125 -18.285156 20.832031 -16.300781 21.84375 -14.90625 C 22.851562 -13.519531 24.265625 -12.828125 26.078125 -12.828125 Z M 26.078125 -12.828125 "/></g></g></g></g><g clip-path="url(#f408536063)"><g fill="#ffffff" fill-opacity="1"><g transform="translate(123.489591, 67.88738)"><g><path d="M 30.96875 -42.546875 C 36.675781 -42.546875 41.078125 -40.664062 44.171875 -36.90625 C 47.265625 -33.15625 48.8125 -27.804688 48.8125 -20.859375 C 48.8125 -13.972656 47.265625 -8.632812 44.171875 -4.84375 C 41.078125 -1.0625 36.675781 0.828125 30.96875 0.828125 C 28.675781 0.828125 26.644531 0.253906 24.875 -0.890625 C 23.101562 -2.035156 21.585938 -3.6875 20.328125 -5.84375 L 20.328125 10.421875 L 3.4375 10.421875 L 3.4375 -41.71875 L 20.328125 -41.71875 L 20.328125 -35.984375 C 22.898438 -40.359375 26.445312 -42.546875 30.96875 -42.546875 Z M 26.078125 -12.828125 C 28.015625 -12.828125 29.503906 -13.519531 30.546875 -14.90625 C 31.597656 -16.300781 32.125 -18.285156 32.125 -20.859375 C 32.125 -26.273438 30.109375 -28.984375 26.078125 -28.984375 C 22.242188 -28.984375 20.328125 -26.273438 20.328125 -20.859375 C 20.328125 -18.285156 20.832031 -16.300781 21.84375 -14.90625 C 22.851562 -13.519531 24.265625 -12.828125 26.078125 -12.828125 Z M 26.078125 -12.828125 "/></g></g></g></g></g></g></svg>