<svg xmlns="http://www.w3.org/2000/svg" xmlns:xlink="http://www.w3.org/1999/xlink" width="2000" zoomAndPan="magnify" viewBox="0 0 1500 1499.999933" height="2000" preserveAspectRatio="xMidYMid meet" version="1.0"><path fill="#000000" d="M 490.78125 1164.8125 C 490.824219 1164.273438 499.539062 1159.539062 510.160156 1154.296875 C 576.664062 1121.511719 638.933594 1075.105469 704.664062 1009.363281 C 769.234375 944.75 822.597656 875.082031 857.460938 809.882812 C 862.5 800.449219 863.304688 799.597656 864.753906 802.117188 C 867.539062 806.894531 866.851562 855.308594 863.789062 870.847656 C 851.921875 931.097656 827.226562 980.433594 773.671875 1050.878906 C 763.929688 1063.695312 756.285156 1074.683594 756.664062 1075.296875 C 757.398438 1076.511719 897.992188 1075.648438 899.207031 1074.417969 C 900.570312 1073.070312 894.316406 1069.410156 883.300781 1065.117188 C 868.753906 1059.449219 846.503906 1054.714844 828.003906 1053.355469 C 819.753906 1052.753906 812.59375 1051.84375 812.078125 1051.347656 C 811.070312 1050.335938 812.8125 1047.378906 825.027344 1029.433594 C 829.644531 1022.664062 840.191406 1003.988281 848.464844 987.933594 C 862.074219 961.550781 863.875 958.753906 867.1875 958.855469 C 869.207031 958.914062 879.753906 960.101562 890.625 961.480469 C 946.082031 968.496094 1078.300781 984.082031 1116.003906 988.023438 C 1152.65625 991.875 1159.128906 991.023438 1162.910156 981.871094 C 1164.15625 978.835938 1164.492188 919.644531 1164.199219 751.699219 L 1163.816406 525.613281 L 1160.359375 522.816406 C 1158.457031 521.277344 1154.664062 520.019531 1151.910156 520.019531 C 1149.167969 520.019531 1129.628906 524.03125 1108.492188 528.925781 C 1087.367188 533.816406 1057.542969 540.703125 1042.234375 544.203125 C 1026.929688 547.703125 1002.859375 553.285156 988.769531 556.609375 C 974.675781 559.921875 951.929688 565.195312 938.230469 568.316406 C 913.269531 574 864.082031 585.484375 818.847656 596.175781 C 805.546875 599.324219 783.132812 604.570312 769.042969 607.851562 C 754.949219 611.132812 732.203125 616.433594 718.503906 619.628906 C 676.449219 629.457031 636.941406 638.347656 626.953125 640.238281 C 616.023438 642.289062 607.222656 646.257812 605.886719 649.714844 C 604.261719 653.949219 604.832031 922.777344 606.472656 925.839844 C 608.964844 930.496094 612.480469 931.464844 635.933594 933.894531 C 648.308594 935.183594 658.972656 936.738281 659.617188 937.367188 C 660.953125 938.6875 633.867188 955.5625 619.628906 962.285156 C 605.40625 969.023438 592.457031 967.75 581.746094 958.578125 C 569.867188 948.398438 570.554688 958.871094 570.554688 789.550781 C 570.554688 666.914062 570.921875 638.378906 572.546875 633.777344 C 574.890625 627.113281 581.820312 618.851562 587.519531 615.90625 C 591.796875 613.695312 613.226562 608.347656 667.234375 596.042969 C 684.960938 592 713.304688 585.394531 730.222656 581.335938 C 747.144531 577.292969 790.328125 567.15625 826.171875 558.808594 C 862.015625 550.445312 925.957031 535.3125 968.261719 525.144531 C 1010.566406 514.996094 1054.730469 504.449219 1066.40625 501.722656 C 1078.082031 498.984375 1101.8125 493.375 1119.140625 489.242188 C 1162.015625 479.03125 1171.128906 477.507812 1179.652344 479.089844 C 1190.171875 481.054688 1198.726562 487.691406 1203.617188 497.679688 L 1207.761719 506.101562 L 1207.761719 1008.542969 L 1203.734375 1015.398438 C 1193.980469 1031.996094 1183.796875 1035.46875 1154.925781 1032.011719 C 1135.867188 1029.726562 1067.796875 1021.375 958.050781 1007.855469 C 922.425781 1003.476562 898.226562 1001.089844 897.421875 1001.894531 C 895.445312 1003.871094 896.277344 1030.195312 898.386719 1032.15625 C 899.355469 1033.066406 905.757812 1035.25 912.597656 1037.007812 C 945.335938 1045.429688 968.496094 1054.703125 999.753906 1071.898438 L 1007.078125 1075.925781 L 1064.207031 1075.738281 C 1101.722656 1075.621094 1124.589844 1074.945312 1130.800781 1073.789062 C 1178.101562 1064.96875 1219.1875 1036.933594 1245.847656 995.257812 C 1263.675781 967.382812 1273.035156 933.925781 1273.09375 897.875 C 1273.140625 857.679688 1264.863281 827.695312 1243.796875 791.777344 L 1237.792969 781.539062 L 1237.792969 713.277344 C 1237.792969 675.730469 1238.203125 644.605469 1238.714844 644.105469 C 1240.679688 642.128906 1262.488281 656.03125 1283.277344 672.496094 C 1327.9375 707.871094 1361.101562 762.011719 1375.3125 822.800781 C 1390.574219 888.03125 1382.417969 957.757812 1352.621094 1016.921875 C 1328.40625 1064.984375 1286.910156 1107.890625 1239.257812 1134.125 C 1215.175781 1147.367188 1177.03125 1159.65625 1149.84375 1162.910156 C 1135.808594 1164.59375 490.679688 1166.453125 490.78125 1164.8125 Z M 344.238281 1160.113281 C 306.136719 1155.511719 272.738281 1142.710938 237.6875 1119.273438 C 187.953125 1086.035156 152.433594 1036.054688 136.597656 977.050781 C 128.996094 948.734375 128.175781 942.011719 128.1875 908.203125 C 128.1875 880.882812 128.644531 874.480469 131.644531 859.863281 C 154.9375 746.175781 240.585938 662.78125 354.289062 643.035156 C 368.570312 640.5625 371.996094 638.980469 372.039062 634.820312 C 372.054688 633.910156 373.972656 626.996094 376.304688 619.4375 C 390.042969 574.847656 408.441406 537.976562 434.339844 503.171875 C 467.871094 458.113281 504.84375 425.976562 555.175781 398.113281 C 587.183594 380.40625 633.910156 365.433594 676.023438 359.414062 C 699.84375 356 748.535156 356.03125 772.542969 359.472656 C 806.46875 364.335938 842.914062 375.453125 874.304688 390.511719 C 913.902344 409.511719 938.980469 427.324219 969.726562 458.320312 C 989.78125 478.535156 996.296875 486.621094 994.21875 488.6875 C 993.382812 489.519531 983.144531 492.070312 906.003906 510.585938 C 890.699219 514.261719 877.117188 517.574219 875.816406 517.9375 C 874.496094 518.320312 867.480469 514.65625 860.023438 509.722656 C 823.257812 485.332031 790.738281 473.160156 748.578125 468.046875 C 725.683594 465.261719 717.15625 465.261719 694.292969 468.046875 C 636.765625 475.0625 590.417969 497.195312 548.816406 537.496094 C 518.378906 566.980469 496.054688 602.898438 482.417969 644.339844 C 473.699219 670.796875 470.316406 691.742188 469.203125 726.195312 C 468.707031 741.707031 467.855469 754.394531 467.328125 754.394531 C 466.816406 754.394531 461.101562 752.476562 454.65625 750.117188 C 435.175781 742.996094 422.007812 740.828125 397.703125 740.726562 C 372.917969 740.609375 359.707031 742.894531 342.230469 750.320312 C 308.363281 764.691406 281.835938 794.515625 269.664062 831.898438 C 257.84375 868.226562 260.40625 914.429688 276.09375 947.445312 C 296.222656 989.851562 334.191406 1018.769531 385.636719 1030.914062 C 400.632812 1034.441406 404.765625 1034.792969 432.128906 1034.792969 C 471.078125 1034.808594 492.40625 1031.5 532.46875 1019.28125 C 615.394531 993.96875 714.226562 930.261719 788.113281 854.5 C 798.191406 844.160156 809.589844 832.234375 813.441406 828.003906 C 817.28125 823.769531 820.765625 820.3125 821.160156 820.3125 C 823.742188 820.3125 790.53125 870.496094 768.339844 900.144531 C 738.265625 940.296875 718.726562 962.636719 681.648438 999.199219 C 653.304688 1027.132812 627.347656 1049.984375 604.246094 1067.300781 C 537.976562 1116.957031 475.226562 1146.914062 413.816406 1158.164062 C 399.476562 1160.800781 359.195312 1161.929688 344.238281 1160.113281 Z M 946.757812 867.320312 C 939.519531 863.980469 937.148438 859.949219 932.09375 842.429688 C 926.265625 822.273438 919.6875 811.15625 904.613281 795.980469 C 893.511719 784.820312 889.335938 781.699219 878.90625 776.792969 C 860.992188 768.355469 853.84375 767.007812 832.132812 767.972656 C 811.070312 768.910156 806.628906 767.78125 801.121094 760.046875 C 794.371094 750.585938 796.960938 738.324219 807.347656 730.5625 C 815.316406 724.628906 846.359375 723.851562 869.324219 729.039062 C 908.6875 737.898438 946.421875 769.117188 964.363281 807.625 C 969.945312 819.625 975.585938 839.882812 975.585938 847.9375 C 975.570312 864.140625 961.023438 873.910156 946.757812 867.320312 Z M 1027.292969 849.667969 C 1020.453125 845.492188 1018.621094 841.859375 1013.816406 822.832031 C 1004.824219 787.207031 992.769531 765.878906 966.796875 739.613281 C 935.902344 708.367188 907.339844 692.652344 869.414062 686.058594 C 856.597656 683.832031 831.519531 683.992188 809.136719 686.441406 C 795.671875 687.917969 786.636719 679.847656 786.621094 666.355469 C 786.621094 651.167969 795.820312 645.570312 825.4375 642.773438 C 852.363281 640.238281 881.835938 643.578125 908.203125 652.132812 C 961.832031 669.550781 1014.300781 716.175781 1038.574219 767.957031 C 1046.644531 785.171875 1054.027344 805.941406 1056.707031 819.007812 C 1060.09375 835.414062 1056.957031 845.347656 1046.878906 850.121094 C 1040.125 853.328125 1033.035156 853.167969 1027.292969 849.667969 Z M 1027.292969 849.667969 " fill-opacity="1" fill-rule="nonzero"/></svg>